<svg xmlns="http://www.w3.org/2000/svg" viewBox="0 0 256 256">
  <rect width="256" height="256" fill="none"/>
  <path d="M240,160a88.12,88.12,0,0,1-69.09,85.82A128.16,128.16,0,0,1,16,120,88,88,0,0,1,127.56,32.68h0a88.1,88.1,0,0,1,16.61,86.08A88.09,88.09,0,0,1,240,160Z" fill="#38bdf8" opacity="0.2"/>
  <path d="M128,112a72,72,0,0,1,52.54-69.25" fill="none" stroke="#0ea5e9" stroke-linecap="round" stroke-linejoin="round" stroke-width="16"/>
  <path d="M114.36,71.65a72,72,0,0,0,29.81,100.11" fill="none" stroke="#0ea5e9" stroke-linecap="round" stroke-linejoin="round" stroke-width="16"/>
  <path d="M100.71,129.2a72,72,0,0,1-40.37,20" fill="none" stroke="#0ea5e9" stroke-linecap="round" stroke-linejoin="round" stroke-width="16"/>
  <circle cx="112" cy="168" r="12" fill="#22c55e"/>
  <path d="M240,160a88.12,88.12,0,0,1-69.09,85.82A128.16,128.16,0,0,1,16,120,88,88,0,0,1,127.56,32.68h0a88.1,88.1,0,0,1,16.61,86.08A88.09,88.09,0,0,1,240,160Z" fill="none" stroke="#0ea5e9" stroke-linecap="round" stroke-linejoin="round" stroke-width="16"/>
  <path d="M88,208c16-32,24-64,24-96" fill="none" stroke="#22c55e" stroke-linecap="round" stroke-linejoin="round" stroke-width="16"/>
  <path d="M51.54,180.64C61.28,162.48,80.69,144,120,144c24,0,37.5-16,44-32" fill="none" stroke="#22c55e" stroke-linecap="round" stroke-linejoin="round" stroke-width="16"/>
</svg>
